<svg width="76" height="76" viewBox="0 0 76 76" fill="none" xmlns="http://www.w3.org/2000/svg">
<g clip-path="url(#clip0_2_597)">
<path d="M39.8979 27.8624C38.4499 27.8624 37.0125 28.1103 35.6482 28.5954L13.3977 36.5065L39.8979 46.5788L40.2656 46.2928V27.8703C40.143 27.8667 40.0205 27.8624 39.8979 27.8624Z" fill="#05858D"/>
<path d="M25.9305 32.0505L13.3977 36.5065L25.7888 41.2161C23.0002 38.8449 23.0625 34.3381 25.9305 32.0505Z" fill="#05858D"/>
<path d="M44.1477 28.5954C42.7833 28.1103 41.346 27.8624 39.8979 27.8624V46.4304L66.3981 36.5065L44.1477 28.5954Z" fill="#0296E5"/>
<path d="M39.8979 45.9851L35.4168 51.281C35.0454 51.7938 34.3798 51.9999 33.7835 51.7866L13.3977 44.495V64.1289C13.3977 65.2928 14.1291 66.3312 15.225 66.7232L36.3073 74.2638C37.4595 74.6759 38.6741 74.8867 39.8977 74.8867C40.0204 74.8867 40.143 74.883 40.2654 74.8788V46.4317L39.8979 45.9851Z" fill="#0296E5"/>
<path d="M18.7031 65.6452V46.3925L13.3978 44.4949V64.1288C13.3978 65.2927 14.1292 66.331 15.2251 66.7231L19.9966 68.4297C19.1932 67.7497 18.7031 66.7403 18.7031 65.6452Z" fill="#05858D"/>
<path d="M46.0124 51.935C45.4161 52.1483 44.7506 51.9423 44.3791 51.4294L39.8979 45.9852V74.8867C41.1217 74.8867 42.3362 74.6761 43.4886 74.2638L64.5708 66.7232C65.6668 66.3312 66.3981 65.2928 66.3981 64.1289V44.6435L46.0124 51.935Z" fill="#0296E5"/>
<path d="M52.3957 4.42234C51.1638 3.79221 50.1575 2.78415 49.5302 1.55061C49.3939 1.28267 49.1203 1.11241 48.8197 1.11241C48.519 1.11241 48.2456 1.28267 48.1093 1.55061C47.482 2.78415 46.4757 3.79206 45.2438 4.42234C44.9767 4.5589 44.8074 4.83188 44.8074 5.13188V5.15148C44.8074 5.44821 44.9715 5.72208 45.2359 5.85701C46.4638 6.48328 47.4676 7.48466 48.0968 8.71078C48.2319 8.97411 48.5053 9.1374 48.8013 9.1374H48.8384C49.1344 9.1374 49.4078 8.97411 49.5429 8.71078C50.1722 7.48466 51.1759 6.48328 52.4038 5.85701C52.6682 5.72223 52.8324 5.44836 52.8324 5.15148V5.13188C52.8321 4.83203 52.6627 4.55905 52.3957 4.42234Z" fill="#FFE02F"/>
<path d="M34.4297 7.71351C33.5077 7.24192 32.7547 6.48757 32.2852 5.56443C32.1832 5.36389 31.9785 5.23653 31.7535 5.23653C31.5284 5.23653 31.3237 5.36389 31.2218 5.56443C30.7523 6.48757 29.9992 7.24192 29.0773 7.71351C28.8775 7.81578 28.7507 8.02003 28.7507 8.24447V8.25917C28.7507 8.48123 28.8736 8.68622 29.0715 8.78716C29.9905 9.25578 30.7417 10.0052 31.2126 10.9229C31.3137 11.12 31.5183 11.2422 31.7398 11.2422H31.7676C31.989 11.2422 32.1937 11.12 32.2948 10.9229C32.7657 10.0052 33.5169 9.25578 34.4359 8.78716C34.6338 8.68622 34.7567 8.48123 34.7567 8.25917V8.24447C34.7562 8.02003 34.6295 7.81578 34.4297 7.71351Z" fill="#FFEA7E"/>
<path d="M48.2417 5.85701C47.9773 5.72223 47.8132 5.44836 47.8132 5.15148V5.13188C47.8132 4.83188 47.9825 4.5589 48.2496 4.42234C49.0503 4.01279 49.7548 3.44278 50.3227 2.7558C50.0168 2.38573 49.7499 1.98242 49.5302 1.55061C49.3939 1.28267 49.1203 1.11241 48.8197 1.11241C48.5191 1.11241 48.2456 1.28267 48.1093 1.55061C47.482 2.78415 46.4757 3.79206 45.2438 4.42234C44.9767 4.5589 44.8074 4.83188 44.8074 5.13188V5.15148C44.8074 5.44821 44.9715 5.72208 45.2359 5.85701C46.4638 6.48328 47.4676 7.48466 48.0968 8.71078C48.2319 8.97411 48.5053 9.1374 48.8013 9.1374H48.8384C49.1344 9.1374 49.4078 8.97411 49.5429 8.71078C49.7601 8.28772 50.0227 7.89213 50.3228 7.52875C49.753 6.83909 49.0458 6.26715 48.2417 5.85701Z" fill="#FBC700"/>
<path d="M31.669 8.78716C31.4711 8.68622 31.3484 8.48123 31.3484 8.25917V8.24447C31.3484 8.02003 31.4751 7.81564 31.6749 7.71351C32.1958 7.44707 32.66 7.08785 33.0524 6.66153C32.7502 6.33319 32.4896 5.9661 32.2853 5.56443C32.1833 5.36389 31.9786 5.23653 31.7536 5.23653C31.5286 5.23653 31.3239 5.36389 31.2219 5.56443C30.7524 6.48757 29.9994 7.24192 29.0774 7.71351C28.8776 7.81578 28.7509 8.02003 28.7509 8.24447V8.25917C28.7509 8.48123 28.8738 8.68622 29.0715 8.78716C29.9905 9.25578 30.7417 10.0052 31.2125 10.9229C31.3136 11.12 31.5183 11.2422 31.7398 11.2422H31.7676C31.989 11.2422 32.1937 11.12 32.2948 10.9229C32.4976 10.5279 32.755 10.1664 33.0526 9.8427C32.6585 9.41446 32.1922 9.05405 31.669 8.78716Z" fill="#FFE02F"/>
<path d="M70.3924 42.0212L66.3979 36.5065L39.8977 45.9851L44.3788 52.1715C44.7504 52.6843 45.4158 52.8904 46.0121 52.677L69.7185 44.1978C70.6125 43.8782 70.9494 42.79 70.3924 42.0212Z" fill="#0296E5"/>
<path d="M9.40334 42.0212L13.3979 36.5065L39.898 45.9851L35.4169 52.1715C35.0454 52.6843 34.3799 52.8904 33.7836 52.677L10.0771 44.1978C9.1832 43.8782 8.84639 42.79 9.40334 42.0212Z" fill="#0296E5"/>
<path d="M13.692 43.5974L17.7108 38.0493L13.3977 36.5065L9.4033 42.0213C8.84635 42.79 9.18331 43.8782 10.0771 44.198L13.7848 45.5242C13.3293 45.0054 13.2492 44.2088 13.692 43.5974Z" fill="#05858D"/>
<path d="M12.5982 35.8536L8.60384 41.3681C7.61122 42.7384 8.21003 44.676 9.80443 45.2461L12.3867 46.1697V64.1288C12.3867 65.7586 13.4178 67.2226 14.9525 67.7713L36.0346 75.312C38.5556 76.2139 41.3581 76.2446 43.9655 75.312L65.0477 67.7713C66.5824 67.2226 67.6135 65.7586 67.6135 64.1288V58.4463C67.6135 57.8313 67.1152 57.333 66.5002 57.333C65.8852 57.333 65.3869 57.8313 65.3869 58.4463V64.1288C65.3869 64.8205 64.9493 65.4419 64.2979 65.6749L43.2155 73.2155C42.5324 73.4599 41.8288 73.6248 41.1133 73.7085V49.4198L43.5795 52.8244C44.2325 53.7265 45.431 54.1043 46.4895 53.7253C47.6694 53.3033 64.8648 47.153 65.387 46.9661V53.2508C65.387 53.8657 65.8854 54.3641 66.5004 54.3641C67.1153 54.3641 67.6137 53.8657 67.6137 53.2508V46.1697L70.1959 45.2461C71.7891 44.6763 72.3897 42.739 71.3962 41.368L71.3964 41.3681L67.402 35.8536C67.2881 35.6961 67.0885 35.5341 66.8732 35.4577L57.223 32.0266C56.6435 31.8201 56.007 32.1231 55.8011 32.7026C55.595 33.282 55.8977 33.9185 56.4771 34.1245L63.1857 36.5098L41.1132 44.4045V29.029C42.0546 29.1197 42.9803 29.3256 43.8767 29.6444L51.5542 32.3743C52.1335 32.5806 52.7702 32.2778 52.9761 31.6983C53.1821 31.1189 52.8795 30.4824 52.3001 30.2764L44.6226 27.5465C41.7074 26.5098 38.4435 26.4561 35.3771 27.5465L13.1268 35.4577C12.9146 35.5332 12.7176 35.6888 12.5982 35.8536ZM10.4069 42.6744L13.9113 37.8361L38.2278 46.5335C37.4026 47.6727 38.1221 46.6796 34.6171 51.5185C34.5365 51.6296 34.3894 51.6748 34.2606 51.6289C33.8464 51.4808 10.9872 43.3045 10.5542 43.1497C10.3587 43.0796 10.2851 42.8426 10.4069 42.6744ZM15.7021 65.6749C15.0508 65.442 14.6132 64.8205 14.6132 64.1288V46.9661L33.5108 53.7253C34.5791 54.1076 35.7689 53.7172 36.4156 52.831C36.4173 52.8288 36.4191 52.8268 36.4207 52.8246C36.4207 52.8244 36.4207 52.8244 36.4207 52.8244L38.8867 49.4198V73.7084C38.1712 73.6246 37.4675 73.4597 36.7844 73.2155L15.7021 65.6749ZM69.5931 42.6744C69.7148 42.8424 69.6412 43.0796 69.446 43.1497C69.2232 43.2294 45.9737 51.545 45.7396 51.6288C45.6108 51.6751 45.4635 51.6298 45.3829 51.5185L41.7721 46.5335L66.0887 37.8361L69.5931 42.6744ZM36.1232 29.6444C37.0196 29.3257 37.9452 29.1199 38.8866 29.029V44.4045C37.9318 44.0629 17.6743 36.8174 16.8142 36.5097L36.1232 29.6444Z" fill="#252836"/>
<path d="M41.1132 23.2002V9.28643C41.1132 8.67144 40.6149 8.17313 39.9999 8.17313C39.3849 8.17313 38.8866 8.67144 38.8866 9.28643V23.2C38.8866 23.815 39.3849 24.3134 39.9999 24.3134C40.6149 24.3134 41.1132 23.815 41.1132 23.2002Z" fill="#FF8700"/>
<path d="M54.7416 11.4148C54.4236 11.5539 46.9404 14.9263 45.7032 24.2025C45.6144 24.8685 46.1319 25.463 46.8082 25.463C47.3575 25.463 47.8357 25.0563 47.9103 24.4967C48.3567 21.1495 49.7817 18.2803 52.1458 15.9688C53.9223 14.2316 55.5984 13.4707 55.6359 13.4539C56.1976 13.2067 56.4537 12.5514 56.2077 11.9888C55.9614 11.4255 55.3055 11.1687 54.7416 11.4148Z" fill="#FF8700"/>
<path d="M52.4791 26.5806C52.1736 27.1143 52.3586 27.7944 52.8922 28.0998C53.4251 28.405 54.1057 28.2207 54.4113 27.6867C56.9972 23.1693 60.8382 21.4058 63.6053 20.7221C64.2022 20.5746 64.5665 19.971 64.4189 19.3741C64.2714 18.7773 63.6677 18.4127 63.0709 18.5605C60.4603 19.206 55.613 21.1057 52.4791 26.5806Z" fill="#FF8700"/>
<path d="M23.7922 11.9888C23.546 12.5521 23.8029 13.2085 24.3663 13.4549C24.4326 13.4839 31.0165 16.4505 32.0896 24.4968C32.1711 25.1083 32.7331 25.5344 33.3404 25.4532C33.9499 25.3719 34.378 24.812 34.2968 24.2025C33.0595 14.9263 25.5762 11.5537 25.2582 11.4148C24.6949 11.1687 24.0388 11.4256 23.7922 11.9888Z" fill="#FF8700"/>
<path d="M15.581 19.3741C15.4336 19.971 15.7978 20.5746 16.3946 20.7221C19.1616 21.406 23.0028 23.1695 25.5885 27.6867C25.8941 28.2207 26.5747 28.4051 27.1076 28.0998C27.6413 27.7943 27.8262 27.1141 27.5207 26.5806C24.387 21.1057 19.5394 19.2058 16.9289 18.5605C16.3316 18.4128 15.7285 18.7776 15.581 19.3741Z" fill="#FF8700"/>
<path d="M60.3771 11.3215C59.7621 11.3215 59.2638 11.8198 59.2638 12.4348C59.2638 13.0498 59.7621 13.5481 60.3771 13.5481H61.1524V14.3234C61.1524 14.9383 61.6507 15.4366 62.2656 15.4366C62.8806 15.4366 63.3789 14.9383 63.3789 14.3234V13.5481H64.1542C64.7692 13.5481 65.2675 13.0498 65.2675 12.4348C65.2675 11.8198 64.7692 11.3215 64.1542 11.3215H63.3789V10.5464C63.3789 9.93139 62.8806 9.43309 62.2656 9.43309C61.6507 9.43309 61.1524 9.93139 61.1524 10.5464V11.3215H60.3771Z" fill="#FF8700"/>
<path d="M15.5485 26.7491H14.7732C14.1582 26.7491 13.6599 27.2474 13.6599 27.8624C13.6599 28.4773 14.1582 28.9756 14.7732 28.9756H15.5485V29.7509C15.5485 30.3659 16.0468 30.8642 16.6618 30.8642C17.2767 30.8642 17.775 30.3659 17.775 29.7509V28.9756H18.5503C19.1653 28.9756 19.6636 28.4773 19.6636 27.8624C19.6636 27.2474 19.1653 26.7491 18.5503 26.7491H17.775V25.9738C17.775 25.3588 17.2767 24.8605 16.6618 24.8605C16.0468 24.8605 15.5485 25.3588 15.5485 25.9738V26.7491Z" fill="#FF8700"/>
<path d="M53.0049 3.43135C51.9875 2.91077 51.1421 2.06362 50.6246 1.04591C49.9148 -0.348689 47.9288 -0.34854 47.219 1.04621C46.7016 2.06362 45.8561 2.91091 44.8389 3.4312C43.445 4.14401 43.4544 6.14617 44.8322 6.84874C45.8451 7.36532 46.6892 8.20712 47.2084 9.21919C47.915 10.5958 49.9287 10.5961 50.6355 9.21904C51.1547 8.20727 51.9987 7.36546 53.0118 6.84859C54.3891 6.14617 54.399 4.1446 53.0049 3.43135ZM48.9217 7.72499C48.2825 6.67522 47.3885 5.78116 46.3387 5.14183C47.3889 4.50264 48.2827 3.60948 48.9219 2.56045C49.5612 3.60948 50.4548 4.50264 51.5047 5.14183C50.4551 5.78116 49.561 6.67507 48.9217 7.72499Z" fill="#252836"/>
<path d="M30.324 11.4314C30.9565 12.6635 32.7547 12.6654 33.3873 11.4314C33.7492 10.726 34.3375 10.1392 35.0436 9.77911C36.2681 9.15477 36.295 7.36546 35.0393 6.72257C35.0392 6.72242 35.039 6.72242 35.0389 6.72227C34.3298 6.35963 33.7406 5.76929 33.3798 5.05974C32.7452 3.8121 30.9666 3.8118 30.3315 5.05989C29.9708 5.76914 29.3817 6.35963 28.6717 6.72272C27.4346 7.35641 27.4252 9.14556 28.6678 9.77911C29.3738 10.1391 29.9621 10.726 30.324 11.4314ZM31.8556 6.82796C32.2475 7.37704 32.7311 7.86051 33.2806 8.2521C32.7314 8.64383 32.2475 9.1276 31.8556 9.67713C31.4639 9.1279 30.9801 8.64383 30.4307 8.2521C30.9802 7.86036 31.464 7.37704 31.8556 6.82796Z" fill="#252836"/>
</g>
<defs>
<clipPath id="clip0_2_597">
<rect width="76" height="76" fill="white"/>
</clipPath>
</defs>
</svg>
